<svg width="458" height="291" viewBox="0 0 458 291" xmlns="http://www.w3.org/2000/svg"><title>dinersclub</title><g fill="none" fill-rule="evenodd"><path d="M457.174 279.137c0 6.533-4.692 11.831-10.481 11.831H10.808c-5.789 0-10.482-5.298-10.482-11.831V18.831c0-6.535 4.693-11.832 10.482-11.832h435.885c5.789 0 10.481 5.297 10.481 11.832v260.306z" fill="#A7A9AC"/><path d="M457.174 272.137c0 6.533-4.692 11.831-10.481 11.831H10.808c-5.789 0-10.482-5.298-10.482-11.831V11.831C.326 5.296 5.019-.001 10.808-.001h435.885c5.789 0 10.481 5.297 10.481 11.832v260.306z" fill="#EFEFEF"/><path d="M94.528 197.859c30.169.145 57.707-24.601 57.707-54.705 0-32.918-27.538-55.672-57.707-55.662H68.564c-30.531-.01-55.661 22.75-55.661 55.662 0 30.112 25.13 54.85 55.661 54.705h25.964z" fill="#0069AA"/><path d="M80.145 172.468V112.69c12.016 4.61 20.547 16.243 20.568 29.888-.021 13.647-8.552 25.273-20.568 29.89m-43.477-29.89c.026-13.637 8.544-25.263 20.554-29.886v59.764c-12.01-4.618-20.528-16.238-20.554-29.878m32.018-50.524c-27.899.009-50.506 22.62-50.512 50.524.006 27.9 22.613 50.508 50.512 50.516 27.906-.008 50.517-22.615 50.52-50.516-.003-27.904-22.614-50.515-50.52-50.524" fill="#FFF"/><path d="M175.617 138.462c0 4.47 3.196 4.989 6.039 4.989 12.541 0 16.658-9.459 16.658-18.109 0-10.852-6.966-18.687-18.167-18.687-2.384 0-3.48.17-4.53.231v31.576zm-5.688-27.226c0-5.22-2.726-4.876-5.335-4.932v-1.509c2.262.111 4.582.111 6.849.111 2.438 0 5.747-.111 10.045-.111 15.03 0 23.213 10.037 23.213 20.316 0 5.748-3.363 20.201-23.913 20.201-2.957 0-5.689-.116-8.416-.116-2.611 0-5.168.056-7.777.116v-1.511c3.479-.351 5.166-.465 5.335-4.412v-28.153h-.001zm43.018-1.39c-1.513 0-2.844-1.393-2.844-2.902 0-1.453 1.395-2.792 2.844-2.792 1.505 0 2.844 1.225 2.844 2.792 0 1.569-1.279 2.902-2.844 2.902zm-6.211 33.957h1.102c1.623 0 2.784 0 2.784-1.919v-15.728c0-2.552-.869-2.907-3.019-4.061v-.93c2.729-.817 5.98-1.914 6.21-2.088a2.063 2.063 0 0 1 1.047-.294c.287 0 .406.35.406.817v22.284c0 1.919 1.277 1.919 2.904 1.919h.985v1.51c-1.975 0-4.009-.116-6.093-.116-2.091 0-4.182.058-6.327.116v-1.51h.001zm17.935-17.301c0-2.146-.642-2.724-3.364-3.827v-1.103c2.494-.811 4.87-1.568 7.66-2.789.174 0 .342.119.342.58v3.774c3.315-2.376 6.159-4.354 10.053-4.354 4.93 0 6.67 3.6 6.67 8.127v14.974c0 1.919 1.277 1.919 2.903 1.919h1.046v1.51c-2.037 0-4.067-.116-6.151-.116-2.094 0-4.183.058-6.273.116v-1.51h1.045c1.629 0 2.783 0 2.783-1.919v-15.03c0-3.312-2.022-4.934-5.334-4.934-1.856 0-4.818 1.507-6.741 2.785v17.179c0 1.919 1.285 1.919 2.91 1.919h1.044v1.51c-2.031 0-4.064-.116-6.155-.116-2.088 0-4.18.058-6.268.116v-1.51h1.047c1.624 0 2.784 0 2.784-1.919v-15.382h-.001zm39.998.932c1.45 0 1.618-.756 1.618-1.452 0-2.959-1.797-5.338-5.049-5.338-3.539 0-5.976 2.606-6.672 6.791h10.103v-.001zm-10.275 1.858c-.119.523-.119 1.392 0 3.366.341 5.512 3.892 10.039 8.527 10.039 3.198 0 5.696-1.74 7.84-3.886l.812.812c-2.67 3.541-5.98 6.561-10.735 6.561-9.231 0-11.088-8.942-11.088-12.655 0-11.378 7.659-14.746 11.72-14.746 4.705 0 9.76 2.959 9.811 9.112 0 .353 0 .696-.051 1.049l-.528.349h-16.308v-.001zm18.224 14.511h1.568c1.619 0 2.78 0 2.78-1.919v-16.308c0-1.798-2.144-2.149-3.018-2.613v-.868c4.238-1.801 6.562-3.312 7.091-3.312.341 0 .514.174.514.758v5.223h.124c1.445-2.263 3.889-5.98 7.428-5.98 1.45 0 3.307.985 3.307 3.077 0 1.567-1.101 2.964-2.725 2.964-1.807 0-1.807-1.397-3.837-1.397-.987 0-4.236 1.336-4.236 4.821v13.636c0 1.919 1.158 1.919 2.786 1.919h3.249v1.51c-3.194-.059-5.624-.116-8.123-.116-2.381 0-4.818.058-6.908.116v-1.511zm22.347-6.561c.757 3.83 3.077 7.083 7.316 7.083 3.419 0 4.695-2.089 4.695-4.121 0-6.85-12.65-4.646-12.65-13.988 0-3.253 2.616-7.432 8.999-7.432 1.854 0 4.35.524 6.612 1.687l.41 5.915h-1.337c-.579-3.653-2.609-5.742-6.327-5.742-2.323 0-4.526 1.334-4.526 3.83 0 6.796 13.466 4.703 13.466 13.815 0 3.828-3.075 7.896-9.984 7.896-2.322 0-5.051-.814-7.08-1.974l-.641-6.676 1.047-.293zm69.071-21.943h-1.448c-1.104-6.787-5.922-9.518-12.42-9.518-6.68 0-16.375 4.468-16.375 18.398 0 11.731 8.365 20.145 17.301 20.145 5.743 0 10.508-3.947 11.671-10.043l1.332.348-1.332 8.474c-2.438 1.515-9 3.081-12.834 3.081-13.578 0-22.167-8.768-22.167-21.827 0-11.9 10.62-20.435 21.996-20.435 4.7 0 9.229 1.514 13.697 3.082l.579 8.295zm2.095 28.504h1.097c1.63 0 2.793 0 2.793-1.919v-32.326c0-3.777-.871-3.893-3.077-4.53v-.929c2.32-.753 4.759-1.798 5.978-2.498.634-.346 1.103-.64 1.273-.64.353 0 .47.351.47.816v40.106c0 1.919 1.276 1.919 2.903 1.919h.979v1.51c-1.967 0-4-.116-6.091-.116-2.088 0-4.176.058-6.325.116v-1.509zm37.267-1.688c0 1.049.636 1.104 1.622 1.104.699 0 1.565-.056 2.323-.056v1.223c-2.498.23-7.258 1.449-8.362 1.797l-.291-.177v-4.698c-3.477 2.842-6.151 4.875-10.276 4.875-3.132 0-6.384-2.033-6.384-6.905v-14.863c0-1.51-.229-2.962-3.476-3.25v-1.104c2.091-.057 6.728-.405 7.484-.405.644 0 .644.405.644 1.683v14.972c0 1.744 0 6.736 5.046 6.736 1.974 0 4.585-1.509 7.021-3.537v-15.62c0-1.158-2.785-1.794-4.87-2.376v-1.044c5.219-.35 8.473-.813 9.053-.813.467 0 .467.405.467 1.047v21.411h-.001zm11.55-3.365c0 2.207 2.088 5.924 5.978 5.924 6.211 0 8.821-6.098 8.821-11.266 0-6.268-4.754-11.489-9.282-11.489-2.154 0-3.95 1.394-5.517 2.73v14.101zm0-15.787c2.32-1.974 5.456-4.181 8.649-4.181 6.733 0 10.793 5.867 10.793 12.191 0 7.603-5.571 15.21-13.876 15.21-4.29 0-6.555-1.396-8.066-2.033l-1.737 1.332-1.216-.635c.514-3.425.81-6.792.81-10.333v-24.957c0-3.777-.875-3.893-3.079-4.53v-.929c2.328-.753 4.761-1.798 5.979-2.498.639-.346 1.101-.64 1.28-.64.348 0 .463.351.463.816v21.187zm-250.42 56.097h.445c1.135 0 2.335-.152 2.335-1.799v-16.546c0-1.646-1.2-1.804-2.335-1.804h-.445v-.947c1.232 0 3.128.126 4.679.126 1.577 0 3.471-.126 4.955-.126v.947h-.444c-1.132 0-2.334.157-2.334 1.804v16.546c0 1.646 1.202 1.799 2.334 1.799h.444v.952c-1.516 0-3.414-.123-4.989-.123-1.548 0-3.412.123-4.645.123v-.952z" fill="#000"/><path d="M174.025 179.876l.003-.674h-.307c-1.128 0-2.473-.196-2.478-1.941v-16.546c.005-1.745 1.35-1.94 2.478-1.94h.304v-.673c-1.458.002-3.286.125-4.818.125-1.501 0-3.314-.117-4.538-.125v.673h.302c1.127 0 2.473.195 2.473 1.94v16.546c0 1.745-1.346 1.941-2.473 1.941h-.302v.674c1.224-.011 3.006-.127 4.503-.127 1.539 0 3.366.119 4.853.127zm.137.27c-1.526 0-3.417-.127-4.99-.127-1.545 0-3.403.127-4.644.127h-.137v-1.222h.579c1.146-.027 2.188-.118 2.198-1.664v-16.546c-.01-1.544-1.053-1.646-2.198-1.666h-.579v-1.222h.137c1.24 0 3.136.123 4.679.123 1.572 0 3.463-.123 4.955-.123h.14v1.222h-.58c-1.146.02-2.194.122-2.201 1.666v16.546c.007 1.546 1.055 1.637 2.201 1.664h.58v1.222h-.14zm21.699-6.361l.063-.061v-11.843c0-2.591-1.804-2.971-2.749-2.971h-.695v-.947c1.485 0 2.938.126 4.421.126 1.294 0 2.594-.126 3.887-.126v.947h-.472c-1.331 0-2.814.256-2.814 4.012v14.374c0 1.104.031 2.208.187 3.188h-1.2l-16.263-18.132v13.016c0 2.746.533 3.691 2.967 3.691h.536v.953c-1.356 0-2.712-.125-4.073-.125-1.417 0-2.871.125-4.295.125v-.953h.442c2.181 0 2.842-1.481 2.842-4.005v-13.302c0-1.768-1.457-2.842-2.872-2.842h-.412v-.947c1.199 0 2.432.126 3.629.126.949 0 1.866-.126 2.814-.126l14.057 15.822z" fill="#000"/><path d="M195.788 173.723v-.011l-.026-.023.026.034zm.073.062l.101-.092-.101.092zm.63 6.56h1.042c-.142-.951-.166-2.001-.166-3.05v-14.373c0-3.789 1.588-4.147 2.949-4.148h.332v-.672c-1.243.008-2.492.124-3.747.124-1.445 0-2.853-.116-4.281-.124l-.003.672h.559c.971.001 2.886.433 2.886 3.11l-.042 11.936-.063.065-.107.099-14.046-15.882c-.937 0-1.853.124-2.815.124-1.157 0-2.342-.116-3.488-.124l-.007.672h.279c1.482.001 3.007 1.132 3.007 2.98v13.301c0 2.525-.703 4.142-2.976 4.149l-.304-.008v.68c1.368-.011 2.776-.127 4.156-.127 1.319 0 2.633.116 3.937.127v-.672h-.399c-2.486-.008-3.103-1.09-3.105-3.836v-13.371l16.402 18.348zm1.197.274l-1.303-.046-16.027-17.863v12.658c.039 2.746.455 3.525 2.834 3.557h.677v1.222h-.141c-1.366 0-2.726-.127-4.073-.127-1.414 0-2.865.127-4.297.127h-.138v-1.222h.582c2.088-.013 2.685-1.353 2.707-3.87v-13.301c-.005-1.682-1.384-2.704-2.738-2.705h-.551v-1.221h.138c1.208 0 2.443.122 3.629.122.941 0 1.855-.122 2.919-.075l13.882 15.625v-11.616c-.017-2.512-1.692-2.815-2.612-2.835h-.837v-1.221h.141c1.491 0 2.945.122 4.422.122 1.286 0 2.58-.122 3.885-.122h.139v1.221h-.609c-1.303.036-2.644.149-2.679 3.873v14.373c0 1.104.032 2.206.186 3.165l.03.159h-.166zm7.831-21.076c-2.374 0-2.462.569-2.938 2.872h-.946c.123-.884.282-1.766.38-2.685.127-.885.188-1.766.188-2.681h.757c.256.948 1.044.915 1.901.915h16.29c.856 0 1.644-.03 1.709-.98l.755.126c-.123.854-.252 1.705-.347 2.56-.058.854-.058 1.706-.058 2.557l-.949.352c-.066-1.168-.224-3.035-2.337-3.035h-5.181v16.803c0 2.438 1.107 2.714 2.619 2.714h.6v.953c-1.229 0-3.442-.124-5.145-.124-1.896 0-4.109.124-5.343.124v-.953h.601c1.743 0 2.622-.155 2.622-2.646v-16.87h-5.178v-.002z" fill="#000"/><path d="M217.969 180.146c-1.243 0-3.453-.126-5.15-.126-1.894 0-4.103.126-5.343.126h-.132v-1.222h.736c1.74-.042 2.44-.062 2.479-2.513v-16.733h-5.04v-.275h5.314v17.008c0 2.534-1.021 2.79-2.754 2.792h-.467v.666c1.246-.005 3.372-.121 5.206-.121 1.646 0 3.757.116 5.007.121v-.666h-.462c-1.527-.002-2.757-.376-2.757-2.858v-16.941h5.318c2.119.005 2.396 1.809 2.465 2.98l.682-.253c0-.821.005-1.648.063-2.48.091-.811.206-1.616.326-2.425l-.484-.08c-.146.917-1.032.965-1.827.955h-16.454c-.741.002-1.554-.032-1.835-.917h-.521a18.846 18.846 0 0 1-.188 2.564c-.091.866-.235 1.701-.354 2.535h.677c.416-2.201.688-2.914 3.046-2.88v.275c-2.337.044-2.287.438-2.802 2.771l-.025.108h-1.214l.017-.166c.13-.882.29-1.766.382-2.684.132-.877.192-1.753.192-2.659v-.138h1.001l.023.099c.216.798.799.803 1.604.814h16.454c.881-.012 1.521-.024 1.574-.852l.014-.147.142.027.892.142-.02.137c-.127.848-.252 1.7-.343 2.547-.064.845-.064 1.694-.064 2.548v.098l-.088.035-1.119.408-.008-.183c-.085-1.188-.21-2.906-2.204-2.906h-5.042v16.667c.028 2.382.974 2.548 2.48 2.579h.739v1.222h-.136v.001zm6.656-1.086h.442c1.137 0 2.338-.152 2.338-1.799v-16.546c0-1.646-1.201-1.804-2.338-1.804h-.442v-.947c1.922 0 5.213.126 7.862.126 2.656 0 5.936-.126 8.083-.126a53.562 53.562 0 0 0 .068 4.834l-.953.253c-.151-2.051-.529-3.694-3.848-3.694h-4.386v8.273h3.753c1.895 0 2.309-1.072 2.495-2.781h.945a69.712 69.712 0 0 0 0 7.298l-.945.188c-.187-1.894-.281-3.126-2.464-3.126h-3.784v7.357c0 2.055 1.825 2.055 3.847 2.055 3.792 0 5.464-.254 6.412-3.851l.885.216c-.414 1.68-.79 3.348-1.072 5.025-2.024 0-5.655-.123-8.495-.123-2.845 0-6.605.123-8.403.123v-.951z" fill="#000"/><path d="M241.405 179.87c.273-1.594.635-3.19 1.024-4.781l-.626-.155c-.943 3.533-2.776 3.848-6.505 3.826-1.989 0-3.98 0-3.989-2.193v-7.494h3.925c2.205-.023 2.429 1.306 2.586 3.104l.684-.143a69.39 69.39 0 0 1 0-7.048h-.684c-.177 1.646-.691 2.801-2.616 2.78h-3.895v-8.553h4.529c3.286-.021 3.83 1.675 3.971 3.66l.679-.182a56.17 56.17 0 0 1-.089-3.091c0-.541.013-1.052.028-1.5-2.146.008-5.345.124-7.94.124-2.598 0-5.792-.116-7.729-.124v.672h.309c1.125.001 2.468.196 2.475 1.941v16.546c-.007 1.743-1.35 1.936-2.475 1.943h-.309v.666c1.844-.002 5.493-.121 8.268-.121 2.786.002 6.342.121 8.379.123zm.116.276c-2.025 0-5.658-.13-8.494-.13-2.843 0-6.598.13-8.401.13h-.135v-1.222h.577c1.146-.018 2.183-.118 2.198-1.664v-16.546c-.016-1.541-1.053-1.643-2.198-1.666h-.577v-1.221h.135c1.927 0 5.213.122 7.862.122 2.653 0 5.932-.122 8.082-.122h.141l-.005.141a49.258 49.258 0 0 0 .063 4.819l.006.113-.105.032-1.11.289-.006-.163c-.188-2.049-.461-3.536-3.713-3.567h-4.257l-.002 7.996h3.624c1.819-.019 2.145-.948 2.359-2.65l.011-.125h1.214l-.006.143a74.502 74.502 0 0 0-.097 3.691c0 1.198.036 2.396.097 3.596l.006.113-.116.024-1.098.219-.011-.147c-.216-1.928-.231-2.983-2.329-3.009l-3.652-.001v7.226c.003 1.916 1.658 1.906 3.717 1.916 3.804-.021 5.327-.206 6.278-3.752l.033-.126.132.022 1.013.262-.03.132c-.408 1.671-.785 3.341-1.069 5.016l-.025.11h-.112v-.001zm9.381-11.509h1.542c3.161 0 4.861-1.197 4.861-4.925 0-2.808-1.798-4.608-4.61-4.608-.95 0-1.354.097-1.793.124v9.409zm-4.044-7.326c0-2.305-1.265-2.397-2.246-2.397h-.569v-.949c1.012 0 2.971.126 4.897.126 1.894 0 3.41-.126 5.083-.126 3.978 0 7.52 1.072 7.52 5.562 0 2.837-1.895 4.574-4.39 5.56l5.399 8.079c.886 1.336 1.514 1.71 3.063 1.895v.953c-1.043 0-2.054-.124-3.094-.124-.979 0-1.993.124-2.968.124-2.433-3.191-4.522-6.601-6.572-10.237h-2.08v6.762c0 2.435 1.132 2.522 2.583 2.522h.571v.953c-1.804 0-3.63-.124-5.432-.124-1.518 0-3.002.124-4.582.124v-.953h.569c1.174 0 2.246-.53 2.246-1.701v-16.049h.002z" fill="#000"/><path d="M252.442 168.501c3.13-.027 4.703-1.113 4.734-4.784-.019-2.757-1.731-4.471-4.482-4.481-.854 0-1.255.079-1.657.116v9.149h1.405zm-1.544.271h-.139v-9.67l.121-.012c.433-.034.859-.121 1.813-.121 2.878 0 4.749 1.868 4.751 4.747-.008 3.771-1.816 5.053-5.003 5.056h-1.543zm0 .867h2.158l.039.071c2.057 3.628 4.131 7.035 6.458 10.167.965 0 1.979-.13 2.96-.13 1.009 0 1.983.11 2.965.125v-.691c-1.482-.185-2.175-.627-3.038-1.939l-5.498-8.222.158-.062c2.47-.972 4.301-2.662 4.303-5.438-.002-4.382-3.407-5.397-7.378-5.416-1.666 0-3.183.123-5.086.123-1.854 0-3.727-.115-4.762-.123v.671h.436c.98 0 2.377.163 2.377 2.536v16.048c0 1.27-1.188 1.845-2.377 1.848h-.436v.666c1.521-.004 2.961-.125 4.441-.125 1.768 0 3.55.121 5.298.125v-.666h-.432c-1.44-.003-2.726-.181-2.726-2.672v-6.896h.14zm14.718 10.507c-1.059 0-2.063-.126-3.103-.126-.961 0-1.972.126-3.071.072-2.424-3.177-4.5-6.569-6.542-10.178h-1.863v6.619c.031 2.375.985 2.354 2.448 2.391h.708v1.222h-.142c-1.806 0-3.639-.126-5.433-.126-1.508 0-2.989.126-4.576.126h-.137v-1.222h.707c1.139-.009 2.098-.504 2.103-1.566V161.31c-.024-2.241-1.122-2.23-2.103-2.262h-.707v-1.222h.137c1.023 0 2.973.123 4.896.123 1.887 0 3.403-.123 5.086-.123 3.98.008 7.646 1.106 7.656 5.692 0 2.852-1.885 4.631-4.321 5.627l5.304 7.943c.884 1.312 1.434 1.638 2.973 1.835l.113.017v1.205h-.133v.001zm21.444-6.361l.058-.061v-11.843c0-2.591-1.799-2.971-2.743-2.971h-.693v-.947c1.482 0 2.931.126 4.42.126 1.297 0 2.586-.126 3.891-.126v.947h-.477c-1.326 0-2.812.256-2.812 4.012v14.374c0 1.104.032 2.208.188 3.188h-1.198l-16.265-18.132v13.016c0 2.746.534 3.691 2.968 3.691h.537v.953c-1.356 0-2.718-.125-4.072-.125-1.426 0-2.878.125-4.298.125v-.953h.439c2.18 0 2.845-1.481 2.845-4.005v-13.302c0-1.768-1.453-2.842-2.873-2.842h-.411v-.947c1.196 0 2.434.126 3.633.126.94 0 1.859-.126 2.81-.126l14.053 15.822z" fill="#000"/><path d="M286.98 173.724v-.009l-.022-.024.022.033zm.08.061l.097-.089-.097.089zm.631 6.56h1.037c-.138-.948-.166-2.001-.166-3.05v-14.373c0-3.789 1.599-4.14 2.952-4.15h.33v-.67c-1.24.008-2.489.124-3.743.124-1.45 0-2.859-.116-4.29-.124v.67h.561c.973.011 2.888.435 2.888 3.11l-.045 11.938-.061.065-.097.101-14.056-15.884c-.938 0-1.854.124-2.808.124-1.171 0-2.351-.116-3.502-.124v.67h.282c1.482.011 3.003 1.13 3.003 2.979v13.296c0 2.535-.712 4.149-2.978 4.157l-.308-.002v.668c1.367-.005 2.772-.121 4.16-.121 1.325 0 2.636.116 3.942.121v-.666h-.4c-2.487-.002-3.107-1.09-3.113-3.839v-13.362l16.412 18.342zm1.199.273l-1.299-.043-16.031-17.864v12.654c.038 2.749.453 3.528 2.835 3.56h.669v1.222h-.136c-1.368 0-2.722-.13-4.075-.13-1.411 0-2.87.13-4.29.13h-.144v-1.222H267c2.085-.01 2.684-1.353 2.703-3.878v-13.296c-.002-1.683-1.381-2.702-2.729-2.702h-.556v-1.222h.144c1.204 0 2.439.123 3.632.123.927 0 1.844-.123 2.902-.081L286.98 173.5v-11.618c-.008-2.51-1.69-2.82-2.608-2.833h-.833v-1.222h.137c1.493 0 2.947.123 4.426.123 1.285 0 2.581-.123 3.882-.123h.14v1.222h-.609c-1.304.031-2.646.149-2.678 3.873v14.373c0 1.103.027 2.199.188 3.169l.017.154h-.152zm12.788-19.116h-.064l-2.938 8.939h5.903l-2.901-8.939zm-4.61 13.992c-.319 1.072-.701 1.898-.701 2.462 0 .951 1.329 1.104 2.369 1.104h.352v.952a72.747 72.747 0 0 0-3.827-.123c-1.137 0-2.267.056-3.407.123v-.952h.19c1.231 0 2.276-.726 2.743-2.054l5.059-14.492c.408-1.169.98-2.749 1.171-3.921 1.006-.342 2.272-.974 2.87-1.354.099-.034.154-.065.253-.065.095 0 .153 0 .224.096.095.252.185.539.286.789l5.81 16.52c.379 1.104.756 2.272 1.164 3.223.382.885 1.045 1.259 2.089 1.259h.188v.952a91.09 91.09 0 0 0-4.356-.123 114.6 114.6 0 0 0-4.74.123v-.952h.349c.723 0 1.96-.122 1.96-.914 0-.408-.284-1.261-.64-2.274l-1.227-3.663h-7.17l-1.009 3.284z" fill="#000"/><path d="M301.541 161.542l.073-.023-.073.023zm-2.678 8.763h5.528l-2.749-8.465-2.779 8.465zm-.379.271l3.025-9.213h.167v.139l-.034.009.034-.009v-.139h.095l2.999 9.213h-6.286zm6.456 9.289c1.563-.058 3.094-.118 4.604-.118 1.467 0 2.84.061 4.213.118v-.662h-.044c-1.083.008-1.828-.417-2.218-1.349-.409-.957-.795-2.128-1.166-3.237l-5.813-16.514c-.098-.253-.189-.537-.272-.762-.028-.031-.019-.031-.047-.031h-.058c-.064 0-.103.019-.183.042-.608.394-1.876 1.016-2.812 1.264-.193 1.193-.762 2.773-1.174 3.942l-5.053 14.494c-.483 1.372-1.59 2.153-2.876 2.15h-.05v.662c1.081-.058 2.178-.118 3.274-.118 1.219 0 2.467.061 3.673.118v-.662h-.203c-1.029-.012-2.466-.128-2.504-1.244.003-.629.388-1.438.699-2.504l.139.041-.139-.044 1.042-3.378h7.361l1.27 3.752c.353 1.017.64 1.856.64 2.321-.043.97-1.379 1.038-2.094 1.056h-.21v.663h.001zm8.953.281c-1.422-.062-2.844-.129-4.348-.129-1.549 0-3.121.066-4.737.129l-.144.007v-1.235h.487c.732 0 1.817-.165 1.817-.771.009-.359-.274-1.226-.624-2.231l-1.201-3.573h-6.967l-.982 3.191c-.319 1.076-.698 1.911-.694 2.425.01.771 1.189.96 2.237.96h.485v1.235l-.143-.007c-1.264-.062-2.554-.129-3.812-.129-1.131 0-2.271.066-3.404.129l-.146.007v-1.235h.325c1.177-.004 2.158-.672 2.613-1.955l5.059-14.496c.412-1.171.981-2.745 1.255-4.004.991-.337 2.259-.972 2.868-1.356.087-.03.174-.073.303-.073a.396.396 0 0 1 .351.185c.088.259.188.541.284.798l5.816 16.517c.372 1.108.748 2.275 1.161 3.21.366.843.945 1.172 1.962 1.176h.321v1.235l-.142-.01zm1.398-20.603c-2.37 0-2.465.569-2.94 2.872h-.949c.124-.884.284-1.766.384-2.685.125-.885.186-1.766.186-2.681h.761c.25.948 1.043.915 1.894.915h16.299c.85 0 1.639-.03 1.703-.98l.755.126c-.121.854-.246 1.705-.342 2.56-.068.854-.068 1.706-.068 2.557l-.945.352c-.058-1.168-.219-3.035-2.334-3.035h-5.181v16.803c0 2.438 1.108 2.714 2.62 2.714h.602v.953c-1.232 0-3.44-.124-5.149-.124-1.891 0-4.107.124-5.337.124v-.953h.599c1.741 0 2.624-.155 2.624-2.646v-16.87h-5.182v-.002z" fill="#000"/><path d="M327.733 180.146c-1.24 0-3.453-.126-5.149-.126-1.888 0-4.1.126-5.337.126h-.141v-1.222h.74c1.741-.042 2.439-.062 2.483-2.513l-.004-16.733h-5.034v-.275h5.312v17.008c0 2.534-1.024 2.784-2.757 2.79h-.465v.674c1.25-.011 3.371-.127 5.203-.127 1.651 0 3.763.116 5.011.127l-.003-.674h-.463c-1.52-.006-2.752-.372-2.756-2.856v-16.941h5.319c2.118.005 2.397 1.809 2.458 2.98l.688-.253c0-.821.002-1.648.064-2.478.087-.812.205-1.619.321-2.426l-.477-.082c-.146.917-1.038.97-1.824.955h-16.46c-.745.01-1.552-.032-1.838-.92h-.516a19.05 19.05 0 0 1-.192 2.567c-.086.869-.24 1.703-.359 2.535h.678c.416-2.201.692-2.917 3.055-2.88v.275c-2.344.04-2.291.438-2.807 2.771l-.024.108h-1.218l.02-.158c.132-.89.288-1.773.381-2.686.13-.883.19-1.759.19-2.665v-.138h.999l.026.099c.222.798.798.803 1.606.814.057 0 .105.004.161.004h16.299c.873-.016 1.511-.028 1.565-.854l.009-.148.146.027.898.142-.025.137c-.13.848-.248 1.7-.345 2.547-.064.845-.064 1.697-.064 2.548v.098l-.091.035-1.119.408-.005-.183c-.083-1.188-.207-2.906-2.201-2.906h-5.045v16.667c.032 2.382.978 2.548 2.481 2.579h.737v1.222h-.131v.001zm6.816-1.086h.442c1.14 0 2.335-.152 2.335-1.799v-16.546c0-1.646-1.195-1.804-2.335-1.804h-.442v-.947c1.234 0 3.125.126 4.671.126 1.585 0 3.479-.126 4.966-.126v.947h-.442c-1.14 0-2.342.157-2.342 1.804v16.546c0 1.646 1.202 1.799 2.342 1.799h.442v.952c-1.52 0-3.415-.123-4.992-.123-1.55 0-3.41.123-4.645.123v-.952z" fill="#000"/><path d="M344.042 179.87v-.668h-.299c-1.132 0-2.475-.198-2.475-1.941v-16.546c0-1.745 1.343-1.94 2.475-1.941h.299v-.672c-1.459.008-3.284.124-4.822.124-1.498 0-3.309-.116-4.531-.124v.672h.303c1.123.001 2.47.196 2.474 1.941v16.546c-.004 1.743-1.351 1.941-2.474 1.941h-.303v.668c1.216-.013 3.003-.121 4.505-.121 1.531 0 3.359.116 4.848.121zm.144.276c-1.527 0-3.418-.13-4.992-.13-1.546 0-3.41.13-4.645.13h-.137v-1.222h.579c1.14-.018 2.188-.118 2.193-1.664v-16.546c-.006-1.541-1.054-1.646-2.193-1.666h-.579v-1.221h.137c1.234 0 3.131.122 4.671.122 1.574 0 3.469-.122 4.966-.122h.132v1.221h-.574c-1.156.02-2.193.125-2.206 1.666v16.546c.013 1.546 1.05 1.646 2.206 1.664h.574v1.222h-.132zm13.07-1.052c6.13 0 7.196-5.403 7.196-10.008 0-4.617-2.488-10.206-7.733-10.206-5.529 0-7.17 4.929-7.17 9.158 0 5.652 2.591 11.056 7.707 11.056m-.477-21.602c6.734 0 12.099 4.172 12.099 10.898 0 7.265-5.211 12.094-11.936 12.094-6.701 0-11.814-4.548-11.814-11.338 0-6.567 5.083-11.654 11.651-11.654" fill="#000"/><path d="M349.412 168.038c.008-4.25 1.667-9.298 7.307-9.298 5.362.011 7.865 5.703 7.874 10.346-.009 4.604-1.094 10.14-7.337 10.14v-.268c6.008-.007 7.049-5.269 7.063-9.872 0-4.579-2.468-10.06-7.601-10.067-5.419.006-7.022 4.812-7.033 9.02.003 5.624 2.57 10.908 7.57 10.92v.268c-5.241-.007-7.835-5.504-7.843-11.189m-4.424 1.108c.014-6.645 5.153-11.783 11.791-11.794v.275c-6.494 0-11.517 5.021-11.522 11.52.013 6.714 5.054 11.192 11.686 11.198 6.658-.006 11.794-4.764 11.804-11.96-.005-6.64-5.289-10.75-11.967-10.758v-.275c6.783.008 12.223 4.224 12.236 11.032-.009 7.342-5.285 12.221-12.073 12.233-6.756-.012-11.941-4.604-11.955-11.471m45.174 4.639l.064-.061v-11.843c0-2.591-1.805-2.971-2.753-2.971h-.685v-.947c1.479 0 2.934.126 4.412.126 1.301 0 2.596-.126 3.892-.126v.947h-.477c-1.324 0-2.812.256-2.812 4.012v14.374c0 1.104.032 2.208.192 3.188h-1.198l-16.27-18.132v13.016c0 2.746.537 3.691 2.968 3.691h.538v.953c-1.358 0-2.714-.125-4.071-.125-1.422 0-2.878.125-4.302.125v-.953h.446c2.184 0 2.839-1.481 2.839-4.005v-13.302c0-1.768-1.445-2.842-2.873-2.842h-.412v-.947c1.202 0 2.435.126 3.633.126.948 0 1.861-.126 2.812-.126l14.057 15.822z" fill="#000"/><path d="M390.087 173.724v-.009l-.024-.024.024.033zm.075.061l.102-.089-.102.089zm.635 6.56h1.033c-.136-.951-.16-2.001-.16-3.05v-14.373c0-3.796 1.593-4.14 2.945-4.15h.342v-.67c-1.248.008-2.495.124-3.759.124-1.438 0-2.849-.116-4.278-.124v.67h.554c.979.011 2.885.442 2.885 3.111l-.034 11.937-.061.065-.102.101-14.057-15.884c-.932 0-1.854.124-2.812.124-1.163 0-2.349-.116-3.497-.124v.67h.276c1.482.011 3.01 1.13 3.01 2.979v13.304c0 2.525-.705 4.142-2.976 4.149l-.311-.002v.668c1.369-.005 2.775-.121 4.166-.121 1.316 0 2.623.116 3.937.121v-.666h-.41c-2.479-.002-3.099-1.09-3.099-3.836v-13.371l16.408 18.348zm1.199.273l-1.307-.045-16.025-17.862v12.657c.036 2.746.454 3.521 2.825 3.552h.684v1.227h-.139c-1.367 0-2.724-.127-4.071-.127-1.418 0-2.867.127-4.303.127h-.132v-1.227h.579c2.082-.008 2.681-1.348 2.706-3.865v-13.304c-.004-1.683-1.381-2.702-2.74-2.702h-.545v-1.221h.132c1.211 0 2.443.122 3.634.122.936 0 1.849-.122 2.917-.075l13.876 15.625v-11.617c-.008-2.511-1.69-2.814-2.613-2.834h-.83v-1.221h.142c1.486 0 2.944.122 4.413.122 1.296 0 2.583-.122 3.895-.122h.136v1.221h-.614c-1.299.036-2.643.152-2.672 3.873v14.373c0 1.103.025 2.204.18 3.169l.027.154h-.155zm12.787-19.116h-.062l-2.942 8.939h5.911l-2.907-8.939zm-4.615 13.992c-.31 1.072-.694 1.898-.694 2.462 0 .951 1.331 1.104 2.367 1.104h.354v.952a72.985 72.985 0 0 0-3.825-.123c-1.141 0-2.273.056-3.405.123v-.952h.179c1.237 0 2.283-.726 2.749-2.054l5.061-14.492c.408-1.169.981-2.749 1.164-3.921a16.24 16.24 0 0 0 2.881-1.354c.089-.034.152-.065.248-.065.094 0 .154 0 .218.096.098.252.193.539.289.789l5.809 16.52c.378 1.104.756 2.272 1.171 3.223.379.885 1.044 1.259 2.084 1.259h.192v.952a91.163 91.163 0 0 0-4.363-.123c-1.543 0-3.125.056-4.736.123v-.952h.349c.72 0 1.96-.122 1.96-.914 0-.408-.287-1.261-.637-2.274l-1.228-3.663h-7.171l-1.016 3.284z" fill="#000"/><path d="M404.653 161.542l.063-.023-.063.023zm-2.682 8.76h5.523l-2.747-8.457-2.776 8.457zm-.38.271l3.028-9.21h.164v.139l-.034.009.034-.009v-.139h.1l2.985 9.21h-6.277zm6.452 9.295c1.561-.061 3.1-.121 4.602-.121 1.471 0 2.847.061 4.222.118l-.004-.662h-.051c-1.07.003-1.815-.417-2.208-1.349-.417-.957-.793-2.128-1.17-3.231l-5.812-16.52c-.095-.253-.191-.537-.269-.755-.026-.038-.024-.038-.048-.038h-.061c-.063 0-.1.021-.177.044-.616.387-1.88 1.019-2.814 1.262-.194 1.193-.769 2.771-1.177 3.942l-5.059 14.494c-.479 1.372-1.582 2.153-2.875 2.15h-.047v.662c1.087-.058 2.175-.118 3.272-.118 1.225 0 2.47.061 3.687.118v-.662h-.214c-1.028-.012-2.467-.125-2.506-1.247.006-.626.398-1.43.702-2.501l.13.041-.13-.044 1.042-3.378h7.364l1.266 3.752c.35 1.019.637 1.856.637 2.321-.047.97-1.372 1.038-2.093 1.056h-.21v.666h.001zm8.951.278c-1.422-.058-2.841-.126-4.35-.126-1.538 0-3.121.068-4.731.126l-.141.007v-1.229h.481c.734 0 1.821-.171 1.824-.777.008-.359-.277-1.221-.631-2.231l-1.199-3.573h-6.972l-.976 3.191c-.317 1.082-.694 1.911-.688 2.422 0 .774 1.185.969 2.229.969h.48v1.229l-.141-.007c-1.261-.058-2.554-.126-3.812-.126-1.132 0-2.267.068-3.404.126l-.14.007v-1.229h.319c1.179-.006 2.164-.682 2.624-1.961l5.054-14.496c.404-1.171.974-2.745 1.254-4.001.991-.343 2.259-.975 2.872-1.359.083-.03.172-.068.298-.068a.36.36 0 0 1 .348.188c.095.246.187.533.291.79l5.81 16.517c.377 1.108.756 2.275 1.164 3.214.371.839.946 1.168 1.955 1.178h.327v1.229l-.145-.01zm7.972-3.231c0 1.265.878 1.642 1.89 1.771 1.295.098 2.716.098 4.173-.063 1.324-.16 2.462-.916 3.028-1.707.504-.696.787-1.579.979-2.273h.916c-.348 1.798-.79 3.571-1.172 5.37-2.772 0-5.561-.123-8.333-.123-2.783 0-5.559.123-8.339.123v-.952h.435c1.143 0 2.377-.152 2.377-2.114v-16.23c0-1.646-1.234-1.804-2.377-1.804h-.435v-.947c1.669 0 3.314.126 4.986.126 1.617 0 3.191-.126 4.806-.126v.947h-.795c-1.197 0-2.14.036-2.14 1.707v16.295h.001z" fill="#000"/><path d="M434.667 179.87c.366-1.713.779-3.389 1.119-5.095h-.647c-.197.688-.479 1.535-.975 2.225-.59.818-1.759 1.591-3.128 1.76-.829.084-1.646.127-2.422.127-.611 0-1.206-.027-1.777-.066-1.027-.116-2.022-.555-2.02-1.905v-16.297c0-1.757 1.11-1.845 2.288-1.845h.652v-.672c-1.556.008-3.09.125-4.663.125-1.635 0-3.233-.117-4.853-.125v.672h.302c1.127 0 2.508.196 2.508 1.937v16.235c0 2.046-1.373 2.257-2.508 2.257h-.302v.668c2.729-.002 5.461-.121 8.205-.121 2.744-.001 5.489.118 8.221.12zm.115.276c-2.785 0-5.564-.127-8.335-.127-2.781 0-5.562.127-8.346.127h-.133v-1.222h.575c1.144-.027 2.227-.104 2.239-1.979V160.71c-.013-1.536-1.09-1.642-2.239-1.661h-.575v-1.221h.133c1.682 0 3.327.122 4.993.122 1.604 0 3.181-.122 4.803-.122h.131v1.221h-.923c-1.225.031-1.985-.021-2.012 1.569v16.297c.011 1.178.782 1.494 1.768 1.634.558.039 1.145.061 1.753.061.772 0 1.577-.037 2.391-.124 1.287-.151 2.396-.894 2.939-1.648.486-.674.765-1.541.954-2.229l.029-.104h1.189l-.028.165c-.358 1.807-.792 3.571-1.174 5.37l-.028.107h-.104v-.001zm.25-19.743h.394c.429 0 .629-.325.629-.848 0-.531-.311-.717-.652-.717h-.37v1.565h-.001zm-1.121 1.755v-.166c.408-.056.482-.045.482-.298v-2.462c0-.346-.034-.465-.469-.444v-.169h1.703c.586 0 1.122.276 1.122.881 0 .496-.325.859-.785 1.005l.548.761c.255.345.543.671.732.784v.108h-.649c-.31 0-.583-.656-1.193-1.532h-.37v1.103c0 .219.077.208.485.264v.166h-1.606v-.001zm1.654.942c1.49 0 2.63-1.268 2.63-2.696 0-1.434-1.124-2.714-2.63-2.714-1.494 0-2.636 1.28-2.636 2.714.001 1.428 1.142 2.696 2.636 2.696zm0-6.035c1.906 0 3.325 1.464 3.325 3.338 0 1.865-1.419 3.314-3.325 3.314-1.901 0-3.326-1.449-3.326-3.314 0-1.874 1.425-3.338 3.326-3.338z" fill="#000"/><path d="M94.528 197.859c30.169.145 57.707-24.601 57.707-54.705 0-32.918-27.538-55.672-57.707-55.662H68.564c-30.531-.01-55.661 22.75-55.661 55.662 0 30.112 25.13 54.85 55.661 54.705h25.964z" fill="#0069AA"/><path d="M80.145 172.468V112.69c12.016 4.61 20.547 16.243 20.568 29.888-.021 13.647-8.552 25.273-20.568 29.89m-43.477-29.89c.026-13.637 8.544-25.263 20.554-29.886v59.764c-12.01-4.618-20.528-16.238-20.554-29.878m32.018-50.524c-27.899.009-50.506 22.62-50.512 50.524.006 27.9 22.613 50.508 50.512 50.516 27.906-.008 50.517-22.615 50.52-50.516-.003-27.904-22.614-50.515-50.52-50.524" fill="#FFF"/><path d="M175.617 138.462c0 4.47 3.196 4.989 6.039 4.989 12.541 0 16.658-9.459 16.658-18.109 0-10.852-6.966-18.687-18.167-18.687-2.384 0-3.48.17-4.53.231v31.576zm-5.688-27.226c0-5.22-2.726-4.876-5.335-4.932v-1.509c2.262.111 4.582.111 6.849.111 2.438 0 5.747-.111 10.045-.111 15.03 0 23.213 10.037 23.213 20.316 0 5.748-3.363 20.201-23.913 20.201-2.957 0-5.689-.116-8.416-.116-2.611 0-5.168.056-7.777.116v-1.511c3.479-.351 5.166-.465 5.335-4.412v-28.153h-.001zm43.018-1.39c-1.513 0-2.844-1.393-2.844-2.902 0-1.453 1.395-2.792 2.844-2.792 1.505 0 2.844 1.225 2.844 2.792 0 1.569-1.279 2.902-2.844 2.902zm-6.211 33.957h1.102c1.623 0 2.784 0 2.784-1.919v-15.728c0-2.552-.869-2.907-3.019-4.061v-.93c2.729-.817 5.98-1.914 6.21-2.088a2.063 2.063 0 0 1 1.047-.294c.287 0 .406.35.406.817v22.284c0 1.919 1.277 1.919 2.904 1.919h.985v1.51c-1.975 0-4.009-.116-6.093-.116-2.091 0-4.182.058-6.327.116v-1.51h.001zm17.935-17.301c0-2.146-.642-2.724-3.364-3.827v-1.103c2.494-.811 4.87-1.568 7.66-2.789.174 0 .342.119.342.58v3.774c3.315-2.376 6.159-4.354 10.053-4.354 4.93 0 6.67 3.6 6.67 8.127v14.974c0 1.919 1.277 1.919 2.903 1.919h1.046v1.51c-2.037 0-4.067-.116-6.151-.116-2.094 0-4.183.058-6.273.116v-1.51h1.045c1.629 0 2.783 0 2.783-1.919v-15.03c0-3.312-2.022-4.934-5.334-4.934-1.856 0-4.818 1.507-6.741 2.785v17.179c0 1.919 1.285 1.919 2.91 1.919h1.044v1.51c-2.031 0-4.064-.116-6.155-.116-2.088 0-4.18.058-6.268.116v-1.51h1.047c1.624 0 2.784 0 2.784-1.919v-15.382h-.001zm39.998.932c1.45 0 1.618-.756 1.618-1.452 0-2.959-1.797-5.338-5.049-5.338-3.539 0-5.976 2.606-6.672 6.791h10.103v-.001zm-10.275 1.858c-.119.523-.119 1.392 0 3.366.341 5.512 3.892 10.039 8.527 10.039 3.198 0 5.696-1.74 7.84-3.886l.812.812c-2.67 3.541-5.98 6.561-10.735 6.561-9.231 0-11.088-8.942-11.088-12.655 0-11.378 7.659-14.746 11.72-14.746 4.705 0 9.76 2.959 9.811 9.112 0 .353 0 .696-.051 1.049l-.528.349h-16.308v-.001zm18.224 14.511h1.568c1.619 0 2.78 0 2.78-1.919v-16.308c0-1.798-2.144-2.149-3.018-2.613v-.868c4.238-1.801 6.562-3.312 7.091-3.312.341 0 .514.174.514.758v5.223h.124c1.445-2.263 3.889-5.98 7.428-5.98 1.45 0 3.307.985 3.307 3.077 0 1.567-1.101 2.964-2.725 2.964-1.807 0-1.807-1.397-3.837-1.397-.987 0-4.236 1.336-4.236 4.821v13.636c0 1.919 1.158 1.919 2.786 1.919h3.249v1.51c-3.194-.059-5.624-.116-8.123-.116-2.381 0-4.818.058-6.908.116v-1.511zm22.347-6.561c.757 3.83 3.077 7.083 7.316 7.083 3.419 0 4.695-2.089 4.695-4.121 0-6.85-12.65-4.646-12.65-13.988 0-3.253 2.616-7.432 8.999-7.432 1.854 0 4.35.524 6.612 1.687l.41 5.915h-1.337c-.579-3.653-2.609-5.742-6.327-5.742-2.323 0-4.526 1.334-4.526 3.83 0 6.796 13.466 4.703 13.466 13.815 0 3.828-3.075 7.896-9.984 7.896-2.322 0-5.051-.814-7.08-1.974l-.641-6.676 1.047-.293zm69.071-21.943h-1.448c-1.104-6.787-5.922-9.518-12.42-9.518-6.68 0-16.375 4.468-16.375 18.398 0 11.731 8.365 20.145 17.301 20.145 5.743 0 10.508-3.947 11.671-10.043l1.332.348-1.332 8.474c-2.438 1.515-9 3.081-12.834 3.081-13.578 0-22.167-8.768-22.167-21.827 0-11.9 10.62-20.435 21.996-20.435 4.7 0 9.229 1.514 13.697 3.082l.579 8.295zm2.095 28.504h1.097c1.63 0 2.793 0 2.793-1.919v-32.326c0-3.777-.871-3.893-3.077-4.53v-.929c2.32-.753 4.759-1.798 5.978-2.498.634-.346 1.103-.64 1.273-.64.353 0 .47.351.47.816v40.106c0 1.919 1.276 1.919 2.903 1.919h.979v1.51c-1.967 0-4-.116-6.091-.116-2.088 0-4.176.058-6.325.116v-1.509zm37.267-1.688c0 1.049.636 1.104 1.622 1.104.699 0 1.565-.056 2.323-.056v1.223c-2.498.23-7.258 1.449-8.362 1.797l-.291-.177v-4.698c-3.477 2.842-6.151 4.875-10.276 4.875-3.132 0-6.384-2.033-6.384-6.905v-14.863c0-1.51-.229-2.962-3.476-3.25v-1.104c2.091-.057 6.728-.405 7.484-.405.644 0 .644.405.644 1.683v14.972c0 1.744 0 6.736 5.046 6.736 1.974 0 4.585-1.509 7.021-3.537v-15.62c0-1.158-2.785-1.794-4.87-2.376v-1.044c5.219-.35 8.473-.813 9.053-.813.467 0 .467.405.467 1.047v21.411h-.001zm11.55-3.365c0 2.207 2.088 5.924 5.978 5.924 6.211 0 8.821-6.098 8.821-11.266 0-6.268-4.754-11.489-9.282-11.489-2.154 0-3.95 1.394-5.517 2.73v14.101zm0-15.787c2.32-1.974 5.456-4.181 8.649-4.181 6.733 0 10.793 5.867 10.793 12.191 0 7.603-5.571 15.21-13.876 15.21-4.29 0-6.555-1.396-8.066-2.033l-1.737 1.332-1.216-.635c.514-3.425.81-6.792.81-10.333v-24.957c0-3.777-.875-3.893-3.079-4.53v-.929c2.328-.753 4.761-1.798 5.979-2.498.639-.346 1.101-.64 1.28-.64.348 0 .463.351.463.816v21.187zm-250.42 56.097h.445c1.135 0 2.335-.152 2.335-1.799v-16.546c0-1.646-1.2-1.804-2.335-1.804h-.445v-.947c1.232 0 3.128.126 4.679.126 1.577 0 3.471-.126 4.955-.126v.947h-.444c-1.132 0-2.334.157-2.334 1.804v16.546c0 1.646 1.202 1.799 2.334 1.799h.444v.952c-1.516 0-3.414-.123-4.989-.123-1.548 0-3.412.123-4.645.123v-.952z" fill="#000"/><path d="M174.025 179.876l.003-.674h-.307c-1.128 0-2.473-.196-2.478-1.941v-16.546c.005-1.745 1.35-1.94 2.478-1.94h.304v-.673c-1.458.002-3.286.125-4.818.125-1.501 0-3.314-.117-4.538-.125v.673h.302c1.127 0 2.473.195 2.473 1.94v16.546c0 1.745-1.346 1.941-2.473 1.941h-.302v.674c1.224-.011 3.006-.127 4.503-.127 1.539 0 3.366.119 4.853.127zm.137.27c-1.526 0-3.417-.127-4.99-.127-1.545 0-3.403.127-4.644.127h-.137v-1.222h.579c1.146-.027 2.188-.118 2.198-1.664v-16.546c-.01-1.544-1.053-1.646-2.198-1.666h-.579v-1.222h.137c1.24 0 3.136.123 4.679.123 1.572 0 3.463-.123 4.955-.123h.14v1.222h-.58c-1.146.02-2.194.122-2.201 1.666v16.546c.007 1.546 1.055 1.637 2.201 1.664h.58v1.222h-.14zm21.699-6.361l.063-.061v-11.843c0-2.591-1.804-2.971-2.749-2.971h-.695v-.947c1.485 0 2.938.126 4.421.126 1.294 0 2.594-.126 3.887-.126v.947h-.472c-1.331 0-2.814.256-2.814 4.012v14.374c0 1.104.031 2.208.187 3.188h-1.2l-16.263-18.132v13.016c0 2.746.533 3.691 2.967 3.691h.536v.953c-1.356 0-2.712-.125-4.073-.125-1.417 0-2.871.125-4.295.125v-.953h.442c2.181 0 2.842-1.481 2.842-4.005v-13.302c0-1.768-1.457-2.842-2.872-2.842h-.412v-.947c1.199 0 2.432.126 3.629.126.949 0 1.866-.126 2.814-.126l14.057 15.822z" fill="#000"/><path d="M195.788 173.723v-.011l-.026-.023.026.034zm.073.062l.101-.092-.101.092zm.63 6.56h1.042c-.142-.951-.166-2.001-.166-3.05v-14.373c0-3.789 1.588-4.147 2.949-4.148h.332v-.672c-1.243.008-2.492.124-3.747.124-1.445 0-2.853-.116-4.281-.124l-.003.672h.559c.971.001 2.886.433 2.886 3.11l-.042 11.936-.063.065-.107.099-14.046-15.882c-.937 0-1.853.124-2.815.124-1.157 0-2.342-.116-3.488-.124l-.007.672h.279c1.482.001 3.007 1.132 3.007 2.98v13.301c0 2.525-.703 4.142-2.976 4.149l-.304-.008v.68c1.368-.011 2.776-.127 4.156-.127 1.319 0 2.633.116 3.937.127v-.672h-.399c-2.486-.008-3.103-1.09-3.105-3.836v-13.371l16.402 18.348zm1.197.274l-1.303-.046-16.027-17.863v12.658c.039 2.746.455 3.525 2.834 3.557h.677v1.222h-.141c-1.366 0-2.726-.127-4.073-.127-1.414 0-2.865.127-4.297.127h-.138v-1.222h.582c2.088-.013 2.685-1.353 2.707-3.87v-13.301c-.005-1.682-1.384-2.704-2.738-2.705h-.551v-1.221h.138c1.208 0 2.443.122 3.629.122.941 0 1.855-.122 2.919-.075l13.882 15.625v-11.616c-.017-2.512-1.692-2.815-2.612-2.835h-.837v-1.221h.141c1.491 0 2.945.122 4.422.122 1.286 0 2.58-.122 3.885-.122h.139v1.221h-.609c-1.303.036-2.644.149-2.679 3.873v14.373c0 1.104.032 2.206.186 3.165l.03.159h-.166zm7.831-21.076c-2.374 0-2.462.569-2.938 2.872h-.946c.123-.884.282-1.766.38-2.685.127-.885.188-1.766.188-2.681h.757c.256.948 1.044.915 1.901.915h16.29c.856 0 1.644-.03 1.709-.98l.755.126c-.123.854-.252 1.705-.347 2.56-.058.854-.058 1.706-.058 2.557l-.949.352c-.066-1.168-.224-3.035-2.337-3.035h-5.181v16.803c0 2.438 1.107 2.714 2.619 2.714h.6v.953c-1.229 0-3.442-.124-5.145-.124-1.896 0-4.109.124-5.343.124v-.953h.601c1.743 0 2.622-.155 2.622-2.646v-16.87h-5.178v-.002z" fill="#000"/><path d="M217.969 180.146c-1.243 0-3.453-.126-5.15-.126-1.894 0-4.103.126-5.343.126h-.132v-1.222h.736c1.74-.042 2.44-.062 2.479-2.513v-16.733h-5.04v-.275h5.314v17.008c0 2.534-1.021 2.79-2.754 2.792h-.467v.666c1.246-.005 3.372-.121 5.206-.121 1.646 0 3.757.116 5.007.121v-.666h-.462c-1.527-.002-2.757-.376-2.757-2.858v-16.941h5.318c2.119.005 2.396 1.809 2.465 2.98l.682-.253c0-.821.005-1.648.063-2.48.091-.811.206-1.616.326-2.425l-.484-.08c-.146.917-1.032.965-1.827.955h-16.454c-.741.002-1.554-.032-1.835-.917h-.521a18.846 18.846 0 0 1-.188 2.564c-.091.866-.235 1.701-.354 2.535h.677c.416-2.201.688-2.914 3.046-2.88v.275c-2.337.044-2.287.438-2.802 2.771l-.025.108h-1.214l.017-.166c.13-.882.29-1.766.382-2.684.132-.877.192-1.753.192-2.659v-.138h1.001l.023.099c.216.798.799.803 1.604.814h16.454c.881-.012 1.521-.024 1.574-.852l.014-.147.142.027.892.142-.02.137c-.127.848-.252 1.7-.343 2.547-.064.845-.064 1.694-.064 2.548v.098l-.088.035-1.119.408-.008-.183c-.085-1.188-.21-2.906-2.204-2.906h-5.042v16.667c.028 2.382.974 2.548 2.48 2.579h.739v1.222h-.136v.001zm6.656-1.086h.442c1.137 0 2.338-.152 2.338-1.799v-16.546c0-1.646-1.201-1.804-2.338-1.804h-.442v-.947c1.922 0 5.213.126 7.862.126 2.656 0 5.936-.126 8.083-.126a53.562 53.562 0 0 0 .068 4.834l-.953.253c-.151-2.051-.529-3.694-3.848-3.694h-4.386v8.273h3.753c1.895 0 2.309-1.072 2.495-2.781h.945a69.712 69.712 0 0 0 0 7.298l-.945.188c-.187-1.894-.281-3.126-2.464-3.126h-3.784v7.357c0 2.055 1.825 2.055 3.847 2.055 3.792 0 5.464-.254 6.412-3.851l.885.216c-.414 1.68-.79 3.348-1.072 5.025-2.024 0-5.655-.123-8.495-.123-2.845 0-6.605.123-8.403.123v-.951z" fill="#000"/><path d="M241.405 179.87c.273-1.594.635-3.19 1.024-4.781l-.626-.155c-.943 3.533-2.776 3.848-6.505 3.826-1.989 0-3.98 0-3.989-2.193v-7.494h3.925c2.205-.023 2.429 1.306 2.586 3.104l.684-.143a69.39 69.39 0 0 1 0-7.048h-.684c-.177 1.646-.691 2.801-2.616 2.78h-3.895v-8.553h4.529c3.286-.021 3.83 1.675 3.971 3.66l.679-.182a56.17 56.17 0 0 1-.089-3.091c0-.541.013-1.052.028-1.5-2.146.008-5.345.124-7.94.124-2.598 0-5.792-.116-7.729-.124v.672h.309c1.125.001 2.468.196 2.475 1.941v16.546c-.007 1.743-1.35 1.936-2.475 1.943h-.309v.666c1.844-.002 5.493-.121 8.268-.121 2.786.002 6.342.121 8.379.123zm.116.276c-2.025 0-5.658-.13-8.494-.13-2.843 0-6.598.13-8.401.13h-.135v-1.222h.577c1.146-.018 2.183-.118 2.198-1.664v-16.546c-.016-1.541-1.053-1.643-2.198-1.666h-.577v-1.221h.135c1.927 0 5.213.122 7.862.122 2.653 0 5.932-.122 8.082-.122h.141l-.005.141a49.258 49.258 0 0 0 .063 4.819l.006.113-.105.032-1.11.289-.006-.163c-.188-2.049-.461-3.536-3.713-3.567h-4.257l-.002 7.996h3.624c1.819-.019 2.145-.948 2.359-2.65l.011-.125h1.214l-.006.143a74.502 74.502 0 0 0-.097 3.691c0 1.198.036 2.396.097 3.596l.006.113-.116.024-1.098.219-.011-.147c-.216-1.928-.231-2.983-2.329-3.009l-3.652-.001v7.226c.003 1.916 1.658 1.906 3.717 1.916 3.804-.021 5.327-.206 6.278-3.752l.033-.126.132.022 1.013.262-.03.132c-.408 1.671-.785 3.341-1.069 5.016l-.025.11h-.112v-.001zm9.381-11.509h1.542c3.161 0 4.861-1.197 4.861-4.925 0-2.808-1.798-4.608-4.61-4.608-.95 0-1.354.097-1.793.124v9.409zm-4.044-7.326c0-2.305-1.265-2.397-2.246-2.397h-.569v-.949c1.012 0 2.971.126 4.897.126 1.894 0 3.41-.126 5.083-.126 3.978 0 7.52 1.072 7.52 5.562 0 2.837-1.895 4.574-4.39 5.56l5.399 8.079c.886 1.336 1.514 1.71 3.063 1.895v.953c-1.043 0-2.054-.124-3.094-.124-.979 0-1.993.124-2.968.124-2.433-3.191-4.522-6.601-6.572-10.237h-2.08v6.762c0 2.435 1.132 2.522 2.583 2.522h.571v.953c-1.804 0-3.63-.124-5.432-.124-1.518 0-3.002.124-4.582.124v-.953h.569c1.174 0 2.246-.53 2.246-1.701v-16.049h.002z" fill="#000"/><path d="M252.442 168.501c3.13-.027 4.703-1.113 4.734-4.784-.019-2.757-1.731-4.471-4.482-4.481-.854 0-1.255.079-1.657.116v9.149h1.405zm-1.544.271h-.139v-9.67l.121-.012c.433-.034.859-.121 1.813-.121 2.878 0 4.749 1.868 4.751 4.747-.008 3.771-1.816 5.053-5.003 5.056h-1.543zm0 .867h2.158l.039.071c2.057 3.628 4.131 7.035 6.458 10.167.965 0 1.979-.13 2.96-.13 1.009 0 1.983.11 2.965.125v-.691c-1.482-.185-2.175-.627-3.038-1.939l-5.498-8.222.158-.062c2.47-.972 4.301-2.662 4.303-5.438-.002-4.382-3.407-5.397-7.378-5.416-1.666 0-3.183.123-5.086.123-1.854 0-3.727-.115-4.762-.123v.671h.436c.98 0 2.377.163 2.377 2.536v16.048c0 1.27-1.188 1.845-2.377 1.848h-.436v.666c1.521-.004 2.961-.125 4.441-.125 1.768 0 3.55.121 5.298.125v-.666h-.432c-1.44-.003-2.726-.181-2.726-2.672v-6.896h.14zm14.718 10.507c-1.059 0-2.063-.126-3.103-.126-.961 0-1.972.126-3.071.072-2.424-3.177-4.5-6.569-6.542-10.178h-1.863v6.619c.031 2.375.985 2.354 2.448 2.391h.708v1.222h-.142c-1.806 0-3.639-.126-5.433-.126-1.508 0-2.989.126-4.576.126h-.137v-1.222h.707c1.139-.009 2.098-.504 2.103-1.566V161.31c-.024-2.241-1.122-2.23-2.103-2.262h-.707v-1.222h.137c1.023 0 2.973.123 4.896.123 1.887 0 3.403-.123 5.086-.123 3.98.008 7.646 1.106 7.656 5.692 0 2.852-1.885 4.631-4.321 5.627l5.304 7.943c.884 1.312 1.434 1.638 2.973 1.835l.113.017v1.205h-.133v.001zm21.444-6.361l.058-.061v-11.843c0-2.591-1.799-2.971-2.743-2.971h-.693v-.947c1.482 0 2.931.126 4.42.126 1.297 0 2.586-.126 3.891-.126v.947h-.477c-1.326 0-2.812.256-2.812 4.012v14.374c0 1.104.032 2.208.188 3.188h-1.198l-16.265-18.132v13.016c0 2.746.534 3.691 2.968 3.691h.537v.953c-1.356 0-2.718-.125-4.072-.125-1.426 0-2.878.125-4.298.125v-.953h.439c2.18 0 2.845-1.481 2.845-4.005v-13.302c0-1.768-1.453-2.842-2.873-2.842h-.411v-.947c1.196 0 2.434.126 3.633.126.94 0 1.859-.126 2.81-.126l14.053 15.822z" fill="#000"/><path d="M286.98 173.724v-.009l-.022-.024.022.033zm.08.061l.097-.089-.097.089zm.631 6.56h1.037c-.138-.948-.166-2.001-.166-3.05v-14.373c0-3.789 1.599-4.14 2.952-4.15h.33v-.67c-1.24.008-2.489.124-3.743.124-1.45 0-2.859-.116-4.29-.124v.67h.561c.973.011 2.888.435 2.888 3.11l-.045 11.938-.061.065-.097.101-14.056-15.884c-.938 0-1.854.124-2.808.124-1.171 0-2.351-.116-3.502-.124v.67h.282c1.482.011 3.003 1.13 3.003 2.979v13.296c0 2.535-.712 4.149-2.978 4.157l-.308-.002v.668c1.367-.005 2.772-.121 4.16-.121 1.325 0 2.636.116 3.942.121v-.666h-.4c-2.487-.002-3.107-1.09-3.113-3.839v-13.362l16.412 18.342zm1.199.273l-1.299-.043-16.031-17.864v12.654c.038 2.749.453 3.528 2.835 3.56h.669v1.222h-.136c-1.368 0-2.722-.13-4.075-.13-1.411 0-2.87.13-4.29.13h-.144v-1.222H267c2.085-.01 2.684-1.353 2.703-3.878v-13.296c-.002-1.683-1.381-2.702-2.729-2.702h-.556v-1.222h.144c1.204 0 2.439.123 3.632.123.927 0 1.844-.123 2.902-.081L286.98 173.5v-11.618c-.008-2.51-1.69-2.82-2.608-2.833h-.833v-1.222h.137c1.493 0 2.947.123 4.426.123 1.285 0 2.581-.123 3.882-.123h.14v1.222h-.609c-1.304.031-2.646.149-2.678 3.873v14.373c0 1.103.027 2.199.188 3.169l.017.154h-.152zm12.788-19.116h-.064l-2.938 8.939h5.903l-2.901-8.939zm-4.61 13.992c-.319 1.072-.701 1.898-.701 2.462 0 .951 1.329 1.104 2.369 1.104h.352v.952a72.747 72.747 0 0 0-3.827-.123c-1.137 0-2.267.056-3.407.123v-.952h.19c1.231 0 2.276-.726 2.743-2.054l5.059-14.492c.408-1.169.98-2.749 1.171-3.921 1.006-.342 2.272-.974 2.87-1.354.099-.034.154-.065.253-.065.095 0 .153 0 .224.096.095.252.185.539.286.789l5.81 16.52c.379 1.104.756 2.272 1.164 3.223.382.885 1.045 1.259 2.089 1.259h.188v.952a91.09 91.09 0 0 0-4.356-.123 114.6 114.6 0 0 0-4.74.123v-.952h.349c.723 0 1.96-.122 1.96-.914 0-.408-.284-1.261-.64-2.274l-1.227-3.663h-7.17l-1.009 3.284z" fill="#000"/><path d="M301.541 161.542l.073-.023-.073.023zm-2.678 8.763h5.528l-2.749-8.465-2.779 8.465zm-.379.271l3.025-9.213h.167v.139l-.034.009.034-.009v-.139h.095l2.999 9.213h-6.286zm6.456 9.289c1.563-.058 3.094-.118 4.604-.118 1.467 0 2.84.061 4.213.118v-.662h-.044c-1.083.008-1.828-.417-2.218-1.349-.409-.957-.795-2.128-1.166-3.237l-5.813-16.514c-.098-.253-.189-.537-.272-.762-.028-.031-.019-.031-.047-.031h-.058c-.064 0-.103.019-.183.042-.608.394-1.876 1.016-2.812 1.264-.193 1.193-.762 2.773-1.174 3.942l-5.053 14.494c-.483 1.372-1.59 2.153-2.876 2.15h-.05v.662c1.081-.058 2.178-.118 3.274-.118 1.219 0 2.467.061 3.673.118v-.662h-.203c-1.029-.012-2.466-.128-2.504-1.244.003-.629.388-1.438.699-2.504l.139.041-.139-.044 1.042-3.378h7.361l1.27 3.752c.353 1.017.64 1.856.64 2.321-.043.97-1.379 1.038-2.094 1.056h-.21v.663h.001zm8.953.281c-1.422-.062-2.844-.129-4.348-.129-1.549 0-3.121.066-4.737.129l-.144.007v-1.235h.487c.732 0 1.817-.165 1.817-.771.009-.359-.274-1.226-.624-2.231l-1.201-3.573h-6.967l-.982 3.191c-.319 1.076-.698 1.911-.694 2.425.01.771 1.189.96 2.237.96h.485v1.235l-.143-.007c-1.264-.062-2.554-.129-3.812-.129-1.131 0-2.271.066-3.404.129l-.146.007v-1.235h.325c1.177-.004 2.158-.672 2.613-1.955l5.059-14.496c.412-1.171.981-2.745 1.255-4.004.991-.337 2.259-.972 2.868-1.356.087-.03.174-.073.303-.073a.396.396 0 0 1 .351.185c.088.259.188.541.284.798l5.816 16.517c.372 1.108.748 2.275 1.161 3.21.366.843.945 1.172 1.962 1.176h.321v1.235l-.142-.01zm1.398-20.603c-2.37 0-2.465.569-2.94 2.872h-.949c.124-.884.284-1.766.384-2.685.125-.885.186-1.766.186-2.681h.761c.25.948 1.043.915 1.894.915h16.299c.85 0 1.639-.03 1.703-.98l.755.126c-.121.854-.246 1.705-.342 2.56-.068.854-.068 1.706-.068 2.557l-.945.352c-.058-1.168-.219-3.035-2.334-3.035h-5.181v16.803c0 2.438 1.108 2.714 2.62 2.714h.602v.953c-1.232 0-3.44-.124-5.149-.124-1.891 0-4.107.124-5.337.124v-.953h.599c1.741 0 2.624-.155 2.624-2.646v-16.87h-5.182v-.002z" fill="#000"/><path d="M327.733 180.146c-1.24 0-3.453-.126-5.149-.126-1.888 0-4.1.126-5.337.126h-.141v-1.222h.74c1.741-.042 2.439-.062 2.483-2.513l-.004-16.733h-5.034v-.275h5.312v17.008c0 2.534-1.024 2.784-2.757 2.79h-.465v.674c1.25-.011 3.371-.127 5.203-.127 1.651 0 3.763.116 5.011.127l-.003-.674h-.463c-1.52-.006-2.752-.372-2.756-2.856v-16.941h5.319c2.118.005 2.397 1.809 2.458 2.98l.688-.253c0-.821.002-1.648.064-2.478.087-.812.205-1.619.321-2.426l-.477-.082c-.146.917-1.038.97-1.824.955h-16.46c-.745.01-1.552-.032-1.838-.92h-.516a19.05 19.05 0 0 1-.192 2.567c-.086.869-.24 1.703-.359 2.535h.678c.416-2.201.692-2.917 3.055-2.88v.275c-2.344.04-2.291.438-2.807 2.771l-.024.108h-1.218l.02-.158c.132-.89.288-1.773.381-2.686.13-.883.19-1.759.19-2.665v-.138h.999l.026.099c.222.798.798.803 1.606.814.057 0 .105.004.161.004h16.299c.873-.016 1.511-.028 1.565-.854l.009-.148.146.027.898.142-.025.137c-.13.848-.248 1.7-.345 2.547-.064.845-.064 1.697-.064 2.548v.098l-.091.035-1.119.408-.005-.183c-.083-1.188-.207-2.906-2.201-2.906h-5.045v16.667c.032 2.382.978 2.548 2.481 2.579h.737v1.222h-.131v.001zm6.816-1.086h.442c1.14 0 2.335-.152 2.335-1.799v-16.546c0-1.646-1.195-1.804-2.335-1.804h-.442v-.947c1.234 0 3.125.126 4.671.126 1.585 0 3.479-.126 4.966-.126v.947h-.442c-1.14 0-2.342.157-2.342 1.804v16.546c0 1.646 1.202 1.799 2.342 1.799h.442v.952c-1.52 0-3.415-.123-4.992-.123-1.55 0-3.41.123-4.645.123v-.952z" fill="#000"/><path d="M344.042 179.87v-.668h-.299c-1.132 0-2.475-.198-2.475-1.941v-16.546c0-1.745 1.343-1.94 2.475-1.941h.299v-.672c-1.459.008-3.284.124-4.822.124-1.498 0-3.309-.116-4.531-.124v.672h.303c1.123.001 2.47.196 2.474 1.941v16.546c-.004 1.743-1.351 1.941-2.474 1.941h-.303v.668c1.216-.013 3.003-.121 4.505-.121 1.531 0 3.359.116 4.848.121zm.144.276c-1.527 0-3.418-.13-4.992-.13-1.546 0-3.41.13-4.645.13h-.137v-1.222h.579c1.14-.018 2.188-.118 2.193-1.664v-16.546c-.006-1.541-1.054-1.646-2.193-1.666h-.579v-1.221h.137c1.234 0 3.131.122 4.671.122 1.574 0 3.469-.122 4.966-.122h.132v1.221h-.574c-1.156.02-2.193.125-2.206 1.666v16.546c.013 1.546 1.05 1.646 2.206 1.664h.574v1.222h-.132zm13.07-1.052c6.13 0 7.196-5.403 7.196-10.008 0-4.617-2.488-10.206-7.733-10.206-5.529 0-7.17 4.929-7.17 9.158 0 5.652 2.591 11.056 7.707 11.056m-.477-21.602c6.734 0 12.099 4.172 12.099 10.898 0 7.265-5.211 12.094-11.936 12.094-6.701 0-11.814-4.548-11.814-11.338 0-6.567 5.083-11.654 11.651-11.654" fill="#000"/><path d="M349.412 168.038c.008-4.25 1.667-9.298 7.307-9.298 5.362.011 7.865 5.703 7.874 10.346-.009 4.604-1.094 10.14-7.337 10.14v-.268c6.008-.007 7.049-5.269 7.063-9.872 0-4.579-2.468-10.06-7.601-10.067-5.419.006-7.022 4.812-7.033 9.02.003 5.624 2.57 10.908 7.57 10.92v.268c-5.241-.007-7.835-5.504-7.843-11.189m-4.424 1.108c.014-6.645 5.153-11.783 11.791-11.794v.275c-6.494 0-11.517 5.021-11.522 11.52.013 6.714 5.054 11.192 11.686 11.198 6.658-.006 11.794-4.764 11.804-11.96-.005-6.64-5.289-10.75-11.967-10.758v-.275c6.783.008 12.223 4.224 12.236 11.032-.009 7.342-5.285 12.221-12.073 12.233-6.756-.012-11.941-4.604-11.955-11.471m45.174 4.639l.064-.061v-11.843c0-2.591-1.805-2.971-2.753-2.971h-.685v-.947c1.479 0 2.934.126 4.412.126 1.301 0 2.596-.126 3.892-.126v.947h-.477c-1.324 0-2.812.256-2.812 4.012v14.374c0 1.104.032 2.208.192 3.188h-1.198l-16.27-18.132v13.016c0 2.746.537 3.691 2.968 3.691h.538v.953c-1.358 0-2.714-.125-4.071-.125-1.422 0-2.878.125-4.302.125v-.953h.446c2.184 0 2.839-1.481 2.839-4.005v-13.302c0-1.768-1.445-2.842-2.873-2.842h-.412v-.947c1.202 0 2.435.126 3.633.126.948 0 1.861-.126 2.812-.126l14.057 15.822z" fill="#000"/><path d="M390.087 173.724v-.009l-.024-.024.024.033zm.075.061l.102-.089-.102.089zm.635 6.56h1.033c-.136-.951-.16-2.001-.16-3.05v-14.373c0-3.796 1.593-4.14 2.945-4.15h.342v-.67c-1.248.008-2.495.124-3.759.124-1.438 0-2.849-.116-4.278-.124v.67h.554c.979.011 2.885.442 2.885 3.111l-.034 11.937-.061.065-.102.101-14.057-15.884c-.932 0-1.854.124-2.812.124-1.163 0-2.349-.116-3.497-.124v.67h.276c1.482.011 3.01 1.13 3.01 2.979v13.304c0 2.525-.705 4.142-2.976 4.149l-.311-.002v.668c1.369-.005 2.775-.121 4.166-.121 1.316 0 2.623.116 3.937.121v-.666h-.41c-2.479-.002-3.099-1.09-3.099-3.836v-13.371l16.408 18.348zm1.199.273l-1.307-.045-16.025-17.862v12.657c.036 2.746.454 3.521 2.825 3.552h.684v1.227h-.139c-1.367 0-2.724-.127-4.071-.127-1.418 0-2.867.127-4.303.127h-.132v-1.227h.579c2.082-.008 2.681-1.348 2.706-3.865v-13.304c-.004-1.683-1.381-2.702-2.74-2.702h-.545v-1.221h.132c1.211 0 2.443.122 3.634.122.936 0 1.849-.122 2.917-.075l13.876 15.625v-11.617c-.008-2.511-1.69-2.814-2.613-2.834h-.83v-1.221h.142c1.486 0 2.944.122 4.413.122 1.296 0 2.583-.122 3.895-.122h.136v1.221h-.614c-1.299.036-2.643.152-2.672 3.873v14.373c0 1.103.025 2.204.18 3.169l.027.154h-.155zm12.787-19.116h-.062l-2.942 8.939h5.911l-2.907-8.939zm-4.615 13.992c-.31 1.072-.694 1.898-.694 2.462 0 .951 1.331 1.104 2.367 1.104h.354v.952a72.985 72.985 0 0 0-3.825-.123c-1.141 0-2.273.056-3.405.123v-.952h.179c1.237 0 2.283-.726 2.749-2.054l5.061-14.492c.408-1.169.981-2.749 1.164-3.921a16.24 16.24 0 0 0 2.881-1.354c.089-.034.152-.065.248-.065.094 0 .154 0 .218.096.098.252.193.539.289.789l5.809 16.52c.378 1.104.756 2.272 1.171 3.223.379.885 1.044 1.259 2.084 1.259h.192v.952a91.163 91.163 0 0 0-4.363-.123c-1.543 0-3.125.056-4.736.123v-.952h.349c.72 0 1.96-.122 1.96-.914 0-.408-.287-1.261-.637-2.274l-1.228-3.663h-7.171l-1.016 3.284z" fill="#000"/><path d="M404.653 161.542l.063-.023-.063.023zm-2.682 8.76h5.523l-2.747-8.457-2.776 8.457zm-.38.271l3.028-9.21h.164v.139l-.034.009.034-.009v-.139h.1l2.985 9.21h-6.277zm6.452 9.295c1.561-.061 3.1-.121 4.602-.121 1.471 0 2.847.061 4.222.118l-.004-.662h-.051c-1.07.003-1.815-.417-2.208-1.349-.417-.957-.793-2.128-1.17-3.231l-5.812-16.52c-.095-.253-.191-.537-.269-.755-.026-.038-.024-.038-.048-.038h-.061c-.063 0-.1.021-.177.044-.616.387-1.88 1.019-2.814 1.262-.194 1.193-.769 2.771-1.177 3.942l-5.059 14.494c-.479 1.372-1.582 2.153-2.875 2.15h-.047v.662c1.087-.058 2.175-.118 3.272-.118 1.225 0 2.47.061 3.687.118v-.662h-.214c-1.028-.012-2.467-.125-2.506-1.247.006-.626.398-1.43.702-2.501l.13.041-.13-.044 1.042-3.378h7.364l1.266 3.752c.35 1.019.637 1.856.637 2.321-.047.97-1.372 1.038-2.093 1.056h-.21v.666h.001zm8.951.278c-1.422-.058-2.841-.126-4.35-.126-1.538 0-3.121.068-4.731.126l-.141.007v-1.229h.481c.734 0 1.821-.171 1.824-.777.008-.359-.277-1.221-.631-2.231l-1.199-3.573h-6.972l-.976 3.191c-.317 1.082-.694 1.911-.688 2.422 0 .774 1.185.969 2.229.969h.48v1.229l-.141-.007c-1.261-.058-2.554-.126-3.812-.126-1.132 0-2.267.068-3.404.126l-.14.007v-1.229h.319c1.179-.006 2.164-.682 2.624-1.961l5.054-14.496c.404-1.171.974-2.745 1.254-4.001.991-.343 2.259-.975 2.872-1.359.083-.03.172-.068.298-.068a.36.36 0 0 1 .348.188c.095.246.187.533.291.79l5.81 16.517c.377 1.108.756 2.275 1.164 3.214.371.839.946 1.168 1.955 1.178h.327v1.229l-.145-.01zm7.972-3.231c0 1.265.878 1.642 1.89 1.771 1.295.098 2.716.098 4.173-.063 1.324-.16 2.462-.916 3.028-1.707.504-.696.787-1.579.979-2.273h.916c-.348 1.798-.79 3.571-1.172 5.37-2.772 0-5.561-.123-8.333-.123-2.783 0-5.559.123-8.339.123v-.952h.435c1.143 0 2.377-.152 2.377-2.114v-16.23c0-1.646-1.234-1.804-2.377-1.804h-.435v-.947c1.669 0 3.314.126 4.986.126 1.617 0 3.191-.126 4.806-.126v.947h-.795c-1.197 0-2.14.036-2.14 1.707v16.295h.001z" fill="#000"/><path d="M434.667 179.87c.366-1.713.779-3.389 1.119-5.095h-.647c-.197.688-.479 1.535-.975 2.225-.59.818-1.759 1.591-3.128 1.76-.829.084-1.646.127-2.422.127-.611 0-1.206-.027-1.777-.066-1.027-.116-2.022-.555-2.02-1.905v-16.297c0-1.757 1.11-1.845 2.288-1.845h.652v-.672c-1.556.008-3.09.125-4.663.125-1.635 0-3.233-.117-4.853-.125v.672h.302c1.127 0 2.508.196 2.508 1.937v16.235c0 2.046-1.373 2.257-2.508 2.257h-.302v.668c2.729-.002 5.461-.121 8.205-.121 2.744-.001 5.489.118 8.221.12zm.115.276c-2.785 0-5.564-.127-8.335-.127-2.781 0-5.562.127-8.346.127h-.133v-1.222h.575c1.144-.027 2.227-.104 2.239-1.979V160.71c-.013-1.536-1.09-1.642-2.239-1.661h-.575v-1.221h.133c1.682 0 3.327.122 4.993.122 1.604 0 3.181-.122 4.803-.122h.131v1.221h-.923c-1.225.031-1.985-.021-2.012 1.569v16.297c.011 1.178.782 1.494 1.768 1.634.558.039 1.145.061 1.753.061.772 0 1.577-.037 2.391-.124 1.287-.151 2.396-.894 2.939-1.648.486-.674.765-1.541.954-2.229l.029-.104h1.189l-.028.165c-.358 1.807-.792 3.571-1.174 5.37l-.028.107h-.104v-.001zm.25-19.743h.394c.429 0 .629-.325.629-.848 0-.531-.311-.717-.652-.717h-.37v1.565h-.001zm-1.121 1.755v-.166c.408-.056.482-.045.482-.298v-2.462c0-.346-.034-.465-.469-.444v-.169h1.703c.586 0 1.122.276 1.122.881 0 .496-.325.859-.785 1.005l.548.761c.255.345.543.671.732.784v.108h-.649c-.31 0-.583-.656-1.193-1.532h-.37v1.103c0 .219.077.208.485.264v.166h-1.606v-.001zm1.654.942c1.49 0 2.63-1.268 2.63-2.696 0-1.434-1.124-2.714-2.63-2.714-1.494 0-2.636 1.28-2.636 2.714.001 1.428 1.142 2.696 2.636 2.696zm0-6.035c1.906 0 3.325 1.464 3.325 3.338 0 1.865-1.419 3.314-3.325 3.314-1.901 0-3.326-1.449-3.326-3.314 0-1.874 1.425-3.338 3.326-3.338z" fill="#000"/></g></svg>